<?xml version="1.0" encoding="UTF-8"?>
<svg version="1.1" viewBox="0 0 1067 1600" width="1280" height="1280" xmlns="http://www.w3.org/2000/svg">
<path transform="translate(382,127)" d="m0 0 5 1 23 11 17 9 12 8 13 11 8 7 11 11 7 11 8 17 5 16 4 28 2 21 4 22 4 9 7 11 8 12 18 20 7 8 8 7 14 10 10 8 20 18 11 13 14 19 12 19 12 22 8 17 12 29 9 29 5 19 2-4 2-18 1-3 1-13 1-3 1-18 1-36-1-23-3-28-1-1-5-33-6-29-11-43-3-20v-18l8-22 5-25 5-15 8-16 6-9 9-10 15-11 16-9 26-11 11-3h5l2 23v19l-4 26-5 16-8 13-11 13-11 10-19 13-14 9-19 10-3 1 2 14 4 18 8 29 5 23 3 16 1 12 2 8 1 10v20h2l3-11 10-26 5-11 4-13 5-26 12-36 8-15 12-14 11-9 16-9 16-8 17-5 26-4h30v13l-3 21-6 23-8 17-7 11-11 13-13 12-15 10-17 8-35 12-14 7-7 7-8 14-9 20-8 26-7 36-5 31-2 17-1 3-2 25 5-5 6-16 12-23 6-9 12-21 11-24 10-16 11-14 7-8 10-10 18-12 18-8 16-4 13-2h37l23 5 20 6-2 4-13 29-10 16-9 11-14 15-13 10-16 8-16 5-13 2-16 2-9 2-21 3-16 4-10 5-9 10-7 11-12 23-10 19-9 20-6 20-16 64-6 23-10 30-8 19-10 19-11 20-11 17-14 18-22 22-18 14-12 9-13 9-12 9-6 5-1 2h10l17-5 16-8 18-10 12-8 14-11 21-21 18-22 11-18 11-26 4-11 2-3h3l5 12 3 9 1 6v9l-2 14-3 12-7 16-10 16-9 11-13 13-14 10-10 7-22 12-21 8-22 7-31 6-28 4-38 8-36 9-38 12-21 8-16 6-16 7-17 9-16 8-16 9-18 12-9 7-15 13-11 9-23 23-7 8-10 13-13 20-10 16-14 26-7 14-12 28-5 19-7 24-2 8-1 10-4-4-3-9-2-15-2-29v-27l3-19 6-28 4-15 7-20 7-16 12-24 9-14 8-13 12-16 12-14 18-18 8-7 13-11 17-13 15-11 26-15 14-7 30-12 38-13 35-9 38-10 18-4 22-7 28-11 19-10 16-9 13-10 12-11 8-10 9-13 1-2v-12l-5-19-6-16-6-11-7-9-8-7-6-2-11-1-14 2-13 5-8 7-11 15-10 16-12 13-11 8-12 6-16 4h-15l-20-3-2-1 1-10 6-25 6-14 9-11 10-9 13-8 8-3 12-3 31-2 18-2 14-2h7l-2-4-10-5-21-4-13-2h-34l-26 5-16 5-12 6-13 10-16 15-10 9-13 9-16 9-15 5-18 3-12 1h-18l-19-1-10-2-24-2-2-1 1-4 6-8 11-20 11-16 11-13 7-8 11-9 8-6 16-8 18-6 11-2 17-1 21 2 13 4 16 6h10l35-6 24-2h15l25 2-7-8-5-4-18-11-28-14-30-9-17-3-11-1h-10l-32 3-25 3h-20l-19-2-16-5-13-5-19-11-17-13-12-12-13-18-11-16-6-8 2-3 30-10 19-4 15-2h31l24 2 19 4 16 6 16 8 14 10 12 11 7 8 7 7 10 15 8 7 16 6 22 9 20 8 18 10 15 10 12 6-10-13-22-26-10-11-7-8-16-16-7-8-13-13-11-9-13-10-10-8-18-12-19-9-19-7-36-10-19-7-17-9-13-10-9-8-7-8-11-15-9-16-10-24-7-16-3-9 4-2 21-2h25l28 2 15 4 16 6 16 9 12 9 13 15 9 12 10 18 8 21 6 21 5 12 9 10 5 4 10 6-12-27-9-25-4-19-1-18v-9l3-16 5-14 8-14 8-10 8-7 12-7 15-4 5-1h23l21 3 15 3 4 1-14-15-10-10-13-9-24-13-15-11-11-10-6-5-7-8-8-10-8-13-6-12-6-18-3-19-1-11v-51zm77 231-13 2-10 4-10 8-11 10-7 11-6 17v23l6 24 8 20 16 32 10 14 14 19 7 9 12 14 12 13 20 20 7 8 16 17 12 14 11 13 13 15 6 8 9 11 13 19 10 14 10 21 11 19 4 1-1-13v-39l-2-15-2-11-5-16-6-15-11-21-9-12-5-5-11-9-14-7-19-7-12-6-11-9-9-13-9-14-3-6-1-6 8 6 14 6 26 7 12 6 13 10 7 7 8 7 15 15 4 3h2l2 4 12 12 8 17 5 12 6 28 4 23 2 1 3-12 3-36v-47l-3-29-6-32-9-30-8-21-8-17-13-23-10-14-9-11-9-10-14-13-17-13-17-11-18-10-12-5-19-5-8-1z" fill="#1E4A3B"/>
<path transform="translate(757,688)" d="m0 0h31l14 3 13 5 12 7 11 10 10 13 9 16 6 19 2 8 1 10v31l-2 9-1 10-7 24-6 16-10 21-14 24-11 17-11 14-10 13-15 16-22 22-8 7-10 8-11 8-14 10-11 7-7 5-12 6-19 10-31 14-43 16-29 10-30 11-19 8-20 8-30 14-17 9-18 11-19 12-14 11-11 9-7 7-8 7-19 19-7 8-12 15-10 13-11 16-7 11-10 19-8 17-5 15-9 31-4 21-1 2-2 19v60l3 23 5 15 2 4v3l-4-2-12-19-12-23-8-16-6-16-6-23-2-17-1-14v-14l2-33 4-23 7-26 6-18 12-25 6-11 11-18 12-18 11-14 9-10 10-11 4-5 8-7 10-9 17-13 10-8 10-7 17-11 27-14 33-14 33-11 30-8 79-22 15-4 27-9 21-9 28-13 25-14 17-12 14-11 11-9 15-14 16-16 9-11 10-14 11-16 6-10 11-24 5-14 5-17 2-16v-14l-4-25-5-12-7-11-9-10-8-6-8-4-12-3h-11l-12 3-10 6-8 7-6 9-2 8-1 9v16l2 12 3 4h11l4-4 5-10 5-13 5-5 7 1 5 5 5 8 5 19 2 8v28l-5 22-6 14-16 27-8 12-11 14-27 27-11 9-10 8-17 10-9 6-28 13-20 9-36 12-23 7-70 17-40 12-24 8-27 11-26 12-9 5-18 11-15 10-13 10-21 16-16 15-12 11-9 11-14 18-12 16-7 10-9 15-14 27-11 29-6 16-4 15-9 58 1 34-4-2-4-7-11-22-5-16-5-19-2-15v-26l8-36 6-22 8-20 9-20 10-19 18-27 9-11 12-14 9-10 19-19 8-7 11-10 11-9 10-8 18-11 21-12 21-11 22-9 25-10 35-11 40-9 46-10 33-6 26-7 24-8 26-11 34-17 14-10 12-8 11-9 16-15 7-7 10-13 10-16 10-18 5-15 2-12 1-14-13 8-3 1h-8l-8-2-9-6-9-10-6-12-2-11v-23l3-13 7-14 7-9 9-9 12-7z" fill="#295733"/>
<path transform="translate(865,665)" d="m0 0 6 4 6 9 14 26 7 14 8 22 5 23 4 41v27l-5 30-11 38-10 25-13 24-9 15-15 22-13 17-7 9-13 15-9 10-11 12-12 11-11 9-15 12-28 20-16 10-32 17-17 9-18 8-22 10-46 19-28 13-34 17-9 6-14 9-19 13-16 13-9 7-14 12-19 19-9 11-14 18-11 18-10 18-8 19-7 19-4 14-5 31-2 18v59l3 24 3 15 3 11-1 3-12-19-15-30-6-15-9-31-3-18-2-23v-25l2-25 3-20 8-25 10-25 10-19 12-19 10-13 8-10 9-10 4-5 5-5 10-9 11-9 13-11 14-10 17-11 26-14 21-10 15-7 36-14 31-11 28-11 35-15 24-11 25-12 11-7 16-10 15-10 16-12 9-7 13-11 8-7 29-29 7-8 11-13 12-17 11-17 10-17 11-23 10-26 7-25 2-12 1-11v-30l-1-22-1-2-2-13-5-17-8-19-12-30-3-6z" fill="#1F4B3B"/>
<path transform="translate(771,759)" d="m0 0 7 1 5 5 5 8 5 19 2 8v28l-5 22-6 14-16 27-8 12-11 14-27 27-11 9-10 8-17 10-9 6-28 13-20 9-36 12-23 7-70 17-40 12-24 8-27 11-26 12-9 5-18 11-15 10-13 10-21 16-16 15-12 11-9 11-14 18-12 16-7 10-9 15-14 27-11 29-6 16-4 15-9 58 1 34-4-2-4-7-11-22-5-16-5-19-2-15v-26l8-36 6-22 8-20 9-20 10-19 18-27 9-11 12-14 9-10 19-19 8-7 11-10 11-9 10-8 18-11 21-12 21-11 22-9 25-10 35-11 40-9 46-10 33-6 26-7 24-8 26-11 34-17 14-10 12-8 11-9 16-15 7-7 10-13 10-16 10-18 5-15 2-12 1-14-4 2-1-2v-12l-5 2-3 4-2-1 6-11 6-15z" fill="#629F4C"/>
<path transform="translate(904,932)" d="m0 0 3 3v14l-3 18-11 40-9 30-6 15-12 25-10 17-15 24-11 13-9 10-15 15-14 11-9 8-17 11-13 8-24 13-31 14-27 10-28 10-23 10-15 6-15 8-11 8-14 12-11 9-11 8-4 2-9-1-8-5-8-7-3-5v-13l6-12 8-10 13-13 13-10 10-7 21-12 18-8 26-11 19-8 49-20 16-7 19-10 11-7 14-10 16-12 14-11 16-13 13-12 9-9h2l2-4 10-11 10-13 13-18 13-24 10-22 10-19 6-14 5-13z" fill="#4A7C41"/>
<path transform="translate(792,909)" d="m0 0 1 2 3-1-1 6h-2v2h-2l-2 5-12 24-3 8h-2l-2 4-10 10-17 13-17 12-16 10h-2v2h-3v2l-5 1v2l-5 1v2l-6 3h-2v2h-3v2l-3 2h-3v2h-3v2h-3v2l-12 7-26 13-7 3-16 6-9 4-11 3-8 3h-4v2l-16 6-27 8-9 4-18 6-12 5-7 3-16 6-42 21h-3v2l-21 11-25 17-17 12-13 11-31 31h-2l-2 5-7 8h-2l-1 4-5 3-2-1 1-3-8 1-1 2h-2l-1 3-4 4h-13l-8 5-3 1-1 2 1-12-1-2 12-19 10-15 11-14 9-10 10-11 4-5 8-7 10-9 17-13 10-8 10-7 17-11 27-14 33-14 33-11 30-8 79-22 15-4 27-9 21-9 28-13 25-14 17-12 14-11 11-9 15-14 16-16 9-11z" fill="#619F4B"/>
<path transform="translate(741,909)" d="m0 0h2l1 8 3-1-1 4-24 24-11 9-10 8-17 10-9 6-28 13-20 9-36 12-23 7-70 17-40 12-24 8-27 11-26 12-9 5-18 11-15 10-13 10-21 16-16 15-12 11-9 11-14 18-12 16-7 10-9 15-14 27-11 29-6 16-4 15-9 58 1 34-4-2-4-7-11-22-5-16-5-19-2-15v-26l8-36 6-22 8-20 9-20 2-3h2l2-6h4l1 3 7-4h6l6 4 3 6v3l2 1 2-5 7-10 9-12 10-13 12-13 10-10 11-9 14-13 22-18 33-22 17-10 8-4 15-7 7-4 10-4 15-7 17-5 19-6 17-4 16-5 27-7 22-5 16-5 23-6 17-6 30-12 12-5 9-4 14-7h2v-2l18-10 18-11 16-11 13-11z" fill="#2A5834"/>
<path transform="translate(601,124)" d="m0 0 4 4 8 17 9 16 6 16 3 14 1 8v23l-2 17-4 15-11 23-8 11-9 10-10 12-4 6-4 11-2 11v7l4 15 6 17-1 2-8-7-6-5-7-10-14-28-7-19-7-26-3-23v-25l1-3 1-13 6-21 11-21 7-10 9-11 11-12 14-14z" fill="#1D493A"/>
<path transform="translate(757,688)" d="m0 0h31l14 3 13 5 12 7 11 10 10 13 9 16 6 19 2 8 1 10v31l-2 9-1 10-7 24-6 16-10 21-14 24-11 17-5 7-2-3-4 2h-3v2h-2v2l-8 3-5 2v2h-2l-2 4-9 8-11 9-8 6-3 3-6 4-2-1 14-11 10-9 5-6h2l1-7 6-10 6-14 4-6h2v-2h2v-5h-2l1-5 12-17 10-16 11-24 5-14 5-17 2-16v-14l-4-25-5-12-7-11-9-10-8-6-8-4-12-3h-11l-12 3-10 6-8 7-6 9-2 8-1 9v16l2 12 3 4h11l4-1 4-5 4-1 1 4v11l-9 6-3 1h-8l-8-2-9-6-9-10-6-12-2-11v-23l3-13 7-14 7-9 9-9 12-7z" fill="#4A7C41"/>
<path transform="translate(225,363)" d="m0 0h25l28 2 15 4 16 6 16 9 12 9 13 15 9 12 10 18 5 13h-2l-3-6-5-6-10-14-16-16 4 5v2h2l1 4 4 2 3 6 2 2-1 4-6 2v1l-9 2-1 3-3 1-4-2v-2l-5-2-11-8-15-9-16-8-18-7h-2l10 6 8 8 8 7 10 10 8 7 10 8 3 2v2l4 2 1 1-1 8-3 5-6 5h-2l-2 5-6 3h-3l9 4v2l-9-2-16-6-17-9-13-10-9-8-7-8-11-15-9-16-10-24-7-16-3-9 4-2z" fill="#609E4A"/>
<path transform="translate(382,127)" d="m0 0 5 1 23 11 17 9 12 8 13 11 8 7 11 11 7 11 8 17 5 16 4 28 2 21 2 13v5l-4-2-5-2-4-5-3-7-4-4-15-28-15-25-12-16-13-15-7-8 9 19 9 21 4 10 10 18 6 12 2 9-1 5h-2l-1 4-4 6-3 1-11-4v2l-4-2-11-10-7-8-8-10-8-13-6-12-6-18-3-19-1-11v-51z" fill="#62A04C"/>
<path transform="translate(768,149)" d="m0 0h5l2 23v19l-4 26-5 16-8 13-11 13-11 10-19 13-14 9-19 10-3 1-2 2-5-12-4-19v-9h-2l-2 9-2 5-2 1-2 19h-1v-18l8-22 5-25 5-15 8-16 6-9 9-10 15-11 16-9 26-11z" fill="#609E49"/>
<path transform="translate(249,522)" d="m0 0h31l24 2 19 4 16 6 16 8 14 10 12 11 7 8 7 7 10 15 1 2h-2v2l-8-1-20-7-10-3-10-4-17-5-16-4-17-4-17-3-23-3-6-1h-8l13 5 20 8-1 3-8 4-5 3-5 4-16 9-3 1v2l-7 1-3 2-12-9-12-12-13-18-11-16-6-8 2-3 30-10 19-4z" fill="#619E4A"/>
<path transform="translate(904,932)" d="m0 0 3 3v14l-3 18-11 40-9 30-6 15-5 11-1-3 1-4-6 10-4 8-3 3-3 1-1 2h-2v-2l-10 2-4 2-2 5-10 14-10 15-7 7h-2l-2 4-5 4-7 8-4 5-9 7-5 5-11 6-8 5-18 8h-3v2l-16 6-18 4-6 1h-30l-11-1-13 3h-6v-2l-7 3-4-1 19-8 49-20 16-7 19-10 11-7 14-10 16-12 14-11 16-13 13-12 9-9h2l2-4 10-11 10-13 13-18 13-24 10-22 10-19 6-14 5-13z" fill="#63A04D"/>
<path transform="translate(488,428)" d="m0 0 11 2 28 6 16 7 13 7 11 8 9 8 8 10 8 17 4 12 5 26 10 26 10 25 4 18v9l-2 3-9-14-12-22-8-16-8-11-7-7-10-5-25-7-12-6-14-11-10-10-9-12-7-15-4-17-2-17v-13z" fill="#629F4C"/>
<path transform="translate(350,669)" d="m0 0 18 1 14 3 21 8-1 3-7 3-9 4-9 2-5 2-4-1v2l-12 4-16 8-15 9-6 4h-3v2l-16 10-14 9-13 8-6 4 14-7 6-2v-2l13-5 30-11 20-8 17-7 7-1-6 7-8 6-4 2v2l-6 4-13 11h-2v2l-6 4-10 10-1 4 5 3 5 2 7 1-4 2-13 3-20 2h-18l-19-1-10-2-24-2-2-1 1-4 6-8 11-20 11-16 11-13 7-8 11-9 8-6 16-8 18-6 11-2z" fill="#629F4B"/>
<path transform="translate(816,560)" d="m0 0h11l18 4 14 7 10 9 10 12 8 13 8 16 6 10 2 3-6 2-37 6-16 3-16-2-16-6-17-9-11-8-3-3-1-7-7 3-13 13-12 14-9 10-4 1-2-3 2-15 5-13 6-11 10-14 9-10 7-7 11-7 12-6 16-4z" fill="#63A04D"/>
<path transform="translate(299,1228)" d="m0 0 3 1 1 3 2-2 1 3-10 14-11 19-11 22-8 20-6 17-6 21-2 9v10l2 8 3 1 4 1 3 2 2-3h2v-5l2 1-2 12-2 9-2 19v60l3 23 5 15 2 4v3l-4-2-12-19-12-23-8-16-6-16-6-23-2-17-1-14v-14l2-33 4-23 7-26 6-18 12-25 6-11 3-1-1 11 9-6 2-1 13 1 2-4 3-3h2l1-3z" fill="#487B3F"/>
<path transform="translate(806,934)" d="m0 0 3 1-1 5-14 18-15 16-22 22-8 7-10 8-11 8-14 10-11 7-7 5-12 6-19 10-31 14-43 16-29 10-30 11-19 8-20 8-11 5h-5l5-6 6-3 4-4 6-4 6-2 1-2 4-1 1-2h-9l-6 2v1l-7 1v1h-7l-4-3 16-8 15-5 10-4 17-6 10-4 21-6 9-4h4v-2l11-3 8-3 12-4 12-5 8-4 10-4 17-9 12-6 3-1v-2h3v-2h3v-2l6-2v-2h3v-2l5-3h3v-2l5-1v-2l5-1v-2h3v-2l12-7 16-11 5-4 7-3 5-2 1-3 8-6 13-11 8-7 1-2h2v-2l6-4 7-1v-2h2v-2z" fill="#2B5934"/>
<path transform="translate(190,1190)" d="m0 0 4 2v2l7-4h6l6 4 3 6 1 6-10 16-9 16v9l12-6v-2h2l2-4 4-2 2-6 4-3h2l-2 6-12 23-11 29-6 16-4 15-9 58 1 34-4-2-4-7-11-22-5-16-5-19-2-15v-26l8-36 6-22 8-20 9-20 2-3h2l2-6z" fill="#497B40"/>
<path transform="translate(854,265)" d="m0 0h30v13l-2 16h-1l1-21-16 11-15 11-18 12-16 8-10 7-2 3-5 3-8 8-6 4-11 12-8 7-11 14-6 7-4 8h-2v3h-2l-1 4-5 5-5 2-3 1 4-18 5-23 11-33 8-15 12-14 11-9 16-9 16-8 17-5z" fill="#619F4B"/>
<path transform="translate(882,272)" d="m0 0 1 4-2 23-6 23-8 17-7 11-11 13-13 12-15 10-17 8-35 12-12 5-1-4 1-3 4-4 3-8 10-14 7-6 7-8 13-15 11-14 12-14 13-14 2-4 19-13 15-11z" fill="#487A3F"/>
<path transform="translate(757,688)" d="m0 0h31l3 2 3 1 18 8 2 3h-8l-2 2v3l3 1-4 6-3 4 2 2-8-1-8-2h-11l-12 3-10 6-8 7-6 9-2 8-1 9v16l2 12 3 4h11l4-1 4-5 4-1 1 4v11l-9 6-3 1h-8l-8-2-9-6-9-10-6-12-2-11v-23l3-13 7-14 7-9 9-9 12-7z" fill="#3D764D"/>
<path transform="translate(360,793)" d="m0 0h13l9 2 5 4 1 6-5 4-15 2-16 5-9 7-8 7-3 4 2 9 1 4v15l-3 9-7 8-13 5h-11l-9-6-6-11-2-5v-18l3-11 6-10 9-9 11-7 14-6 20-6z" fill="#67A251"/>
<path transform="translate(285,576)" d="m0 0 5 1 19 7 26 7 9 2 1 7-1 8-1 4v6l7 2v2l4 1-2 1v2h9v1l-32 4h-20l-19-2-16-5-13-5-19-11-4-3 2-4h7v-2l19-11 5-4 2-2 5-2z" fill="#46793E"/>
<path transform="translate(524,469)" d="m0 0 5 2 15 10 10 8 12 11 7 3 6-5 3-1 6 3-1-10 2-1 2 7h2l3 9 5 26 10 26 10 25 4 18v9l-2 3-9-14-12-22-8-16-8-11-7-7-10-5-25-7-12-6-10-8-1-5h2l-1-3-2-4 10-3 13-4h2l-4-7-9-11-8-9z" fill="#1F4B3B"/>
<path transform="translate(772,176)" d="m0 0 2 1v23l-4 20-4 13-8 13-11 13-11 10-19 13-14 9-19 10h-4v-7l5-14 4-14 7-15 9-16 9-11 9-10 10-10 7-5-2 4-6 10-5 11-7 20v5l3-1 1-7 10-8 9-8h2l1-4 8-7 5-5 3-1 4-7 4-20z" fill="#1D4939"/>
<path transform="translate(485,719)" d="m0 0h19l1 5-12 9-13 12-14 15-10 13-5 5-4 6h-2v2l-7 6v8l3 3v2l6 1v1h-15l-20-3-2-1 1-10 6-25 6-14 9-11 10-9 13-8 8-3 12-3z" fill="#62A04C"/>
<path transform="translate(598,127)" d="m0 0 1 2h3l5 12 1 4v9l-4 14-7 16-4 5-2-1 1 4-2 2-5 1-2 9-2 4h-5v3l-12 6-7 3-7 6-1 4v2l-2 8-3 5 1 3-4-2v-6h-2l-1-4-1 12-2 1v-13l1-3 1-13 6-21 11-21 7-10 9-11 11-12 14-14z" fill="#3B754C"/>
<path transform="translate(287,242)" d="m0 0h19l12 3 10 7 6 9 3 9v14l-5 8-10 6-9 3h-17l-10-5-11-11-5-10-3-13v-7l3-5 7-5z" fill="#64A14E"/>
<path transform="translate(551,1015)" d="m0 0h4l1 4 3 1-64 16-47 14-32 12-22 10-21 10-9 6-16 10-13 9-18 14-12 9-16 15-12 11-9 11-14 18-12 16-2 2-1-13 3-5h2l2-5 5-5 6-5 3-1 1-2h2l2-4 6-7 5-10h2l2-4 8-7 1-3h2l1-5 4-5 14-11 7-7 4-5 5-2 4-4 8-3 10-6 3-1v-2l14-9 26-12 17-4 12-5 1-2 16-6 16-3 9-2 9-5 2-2 9-2 15-4 9-1h3 11l1-2 4 1 6-3v2l7-3 1 1 2-3 7-1 3 1z" fill="#316239"/>
<path transform="translate(186,1275)" d="m0 0h2l3 12 3 2-2 21-3 16-7 45 1 34-4-2-4-7-11-22-5-16-5-19-2-15 1-19 2-4 4-2 3-5 2-1 3-6 3-3 10-4 4-2v-2z" fill="#255040"/>
<path transform="translate(504,1019)" d="m0 0h6l-5 5-17 4-8 3-7 1-3 3-11 5-17 3-14 4-4 2h-3l-1 3-15 6-14 3-13 6-17 8-8 6h-2v2l-11 7-6 3-7 2-1 3-6 3-9 10-13 11-5 5-2 5h-2l-1 4-4 2-2 4-4 4h-2l-2 7-7 9-4 5h-2l-1 3-6 3-4 4h-2l-4 8h-2l-2 7v12l-7 10-6 10-7 4-2 6-5 3-1 2h-2v2l-9 6h-3l-1-9 10-18 15-24 10-14 11-14 9-11 16-16 11-9 14-13 22-18 33-22 17-10 8-4 15-7 7-4 10-4 15-7 17-5 19-6 17-4 16-5z" fill="#295733"/>
<path transform="translate(823,593)" d="m0 0 7 1 8 4v2h3v2l4 2 8 7 10 9 6 5 3 1v2l4 2 1 3v3l-2 2h-6v2l-25 5-16-2-16-6-17-9-7-5-1-3 2-2 2-5 3-4-12 3 1-4 15-6 18-6 2-2z" fill="#487B40"/>
<path transform="translate(371,711)" d="m0 0 3 1-5 5-9 7-4 2v2l-6 4-13 11h-2v2l-6 4-10 10-1 4 5 3 5 2 7 1-4 2-13 3-20 2h-18l-19-1-1-2-17-3 3-2-1-4 9-6 8-4 7-1 12-6 6-2v-2l13-5 30-11 20-8 17-7z" fill="#487B3F"/>
<path transform="translate(611,1057)" d="m0 0 4 1-3 4-3 2-13 3-14 5-8 5-1 6 5-2 1-2 13-1 14-4 5-1 1-3 8-3h8l6-3h6l2 1-1 3-23 9-27 10-29 10-30 11-19 8-20 8-11 5h-5l5-6 6-3 4-4 6-4 6-2 1-2 4-1 1-2h-9l-6 2v1l-7 1v1h-7l-4-3 16-8 15-5 10-4 17-6 10-4 21-6 9-4h4v-2l11-3 8-3 12-4z" fill="#204C3B"/>
<path transform="translate(370,295)" d="m0 0h12l9 2 6 4 6 7 3 7v14l-4 9-7 7-12 5h-11l-10-5-7-9-3-6-1-5v-8l3-9 5-7 8-5z" fill="#63A04D"/>
<path transform="translate(387,706)" d="m0 0h17l6 3 1 3 2 2-10 7-10 9-8 7-13 12-13 9-16 9-5 2h-10l-10-5-1-3 7-8 7-7 4-1v-2l9-7 10-8h2v-2l10-8 7-6 1-2z" fill="#2C5A35"/>
<path transform="translate(302,439)" d="m0 0 8 6 10 8v2l4 2 1 1-1 8-3 5-6 5h-2l-2 5-6 3h-3l9 4v2l-9-2-16-6-17-9-13-10-9-8-2-5 8 4 7-4 7-1 4-2 10-1 11-1 3-2h3v-2h3z" fill="#47793F"/>
<path transform="translate(236,646)" d="m0 0h7l9 3 8 7 4 8 1 5v13l-4 6-7 6-9 3h-9l-7-3-8-7-4-9v-12l3-8 7-8 5-3z" fill="#65A04F"/>
<path transform="translate(435,390)" d="m0 0h13l10 6 6 9 2 7v11l-4 8-8 7-9 3h-8l-7-3-5-5-4-6-2-6v-16l6-8 6-5z" fill="#629F4C"/>
<path transform="translate(499,533)" d="m0 0 8 6 14 6 26 7 12 6 13 10 10 10h-2l-3 3-5-1-18-5-5 1 3 11h-5v2h6l9 2v3l-2 1-21-8-11-7-8-7-9-13-9-14-3-6-1-6z" fill="#6CA657"/>
<path transform="translate(624,334)" d="m0 0h13l8 3 8 8 2 5v14l-3 6-5 6-10 5h-12l-9-5-6-7-4-11 2-10 4-6 9-7z" fill="#65A150"/>
<path transform="translate(511,129)" d="m0 0 9 1 8 5 7 9 2 5v9l-4 9-6 7-6 3-12 1-6-2-6-4-5-8-2-6v-12l5-8 7-6z" fill="#65A150"/>
<path transform="translate(751,723)" d="m0 0m-2 1 2 1-3 5-8 10-3 10-1 9v16l2 12 3 4h11l4-1 4-5 4-1 1 4v11l-9 6-3 1h-8l-8-2-9-6-9-10-6-12-2-11v-23l3-4 2 4 8-1 2 2 2 1 1-4 5-2 2-4 9-6z" fill="#1B4738"/>
<path transform="translate(675,1026)" d="m0 0h2l2 9-1 5-1 3 3 3-1 4-29 14-8 3v-2h-8l-6 3h-8l-8 3-1 2-18 6h-8l-4 1-2-1-1 3-5 1v-6l11-7 14-5 11-2 5-5 2-3 13-5 15-7 16-8 10-6h2v-2z" fill="#295733"/>
<path transform="translate(861,419)" d="m0 0h37l9 2v1h-8l4 1 1 4 2 1v2l-2 2h-38l-4 1h-8l-11 2-18 7-20 11-11 8-10 9-4 2v2l-6 4-8 6-1 2-2-1 7-11 9-11 7-8 10-10 18-12 18-8 16-4z" fill="#4F8148"/>
<path transform="translate(772,176)" d="m0 0 2 1v23l-4 20-4 13-8 13-11 13-8 7-5-1 2-2-4-5h-15v-7l2-4 1 2 3-1 1-7 10-8 9-8h2l1-4 8-7 5-5 3-1 4-7 4-20z" fill="#497C40"/>
<path transform="translate(363,1073)" d="m0 0v3l-5 7-5 5h3l6-2v3l-20 13-16 12-21 16-16 15-12 11-9 11-14 18-12 16-2 2-1-13 3-5h2l2-5 5-5 6-5 3-1 1-2h2l2-4 6-7 5-10h2l2-4 8-7 1-3h2l1-5 4-5 14-11 7-7 4-5 5-2 4-4 8-3 10-6 3-1v-2z" fill="#2F5B45"/>
<path transform="translate(327,840)" d="m0 0 5 1 1 6h2v15l-3 9-7 8-13 5h-11l-9-6-5-8-1-9 1 2 6-2 2-4 5-4 5-2 4-2v-2l8-5z" fill="#4B7D42"/>
<path transform="translate(261,1410)" d="m0 0h1l1 65-6-2h-5l-1 4h-2l-8-16-8-19-5-18v-10l5 5 5-1 2-3 5-1 4 4 5 9 5 1 1-15z" fill="#2A5934"/>
<path transform="translate(630,987)" d="m0 0h6l2 2-2 3h-3l1 4-18 7-37 12-16 4h-7l-1-4h-4v2l-10 1-2 3h-3l-5 1h-3l-5 2h-3l-7 1h-5l-2 1-1-3 2-5 28-6 19-6 23-6 10-4 2 1v1l9-2 12-3 6-3 12-2z" fill="#295836"/>
<path transform="translate(768,149)" d="m0 0h5l-1 2-11 2h7l3 3-1 6-11 14-8 10-1-2 2-3v-4l-3-1-20 1-16 8-8 7h-2v2l-8 7-8 10-4 7-4 2-2 5-2 1 1-6 8-17 10-14 11-10 15-10 15-8 28-11z" fill="#93CF73"/>
<path transform="translate(223,1224)" d="m0 0h3l-2 6-12 23-11 29-6 16-2 8h-1l1-15 1-2-4-2-2-7v-5l-4 1v2l-8 5-7 3-3 4-2 4-2 2-2 1-2 4-3 1-2 12h-1v-16l1-3h2l2-4 5-3 10-15 5-4 5-5 4-5 8-14 2-5 2 1v6l12-6v-2h2l2-4 4-2 2-6z" fill="#38683F"/>
<path transform="translate(186,1275)" d="m0 0h2l3 12 3 2-2 21-2 11-3 1-1 11-2 1 1-12h-6l-5-6-9 3-5 2-6-4-1 2v-14l2-4 4-2 3-5 2-1 3-6 3-3 10-4 4-2v-2z" fill="#295733"/>
<path transform="translate(249,522)" d="m0 0h31l8 1v1l21 3 5 3 6 4 5 4-9-1-16-3-9-1h-27l-25 1-19 2h-8v3l-4 2-4 4-6 2h-7l-1-1-2 2-5-7 2-3 30-10 19-4z" fill="#8DCC6C"/>
<path transform="translate(337,408)" d="m0 0 7 6 13 13 10 15 4 4 1 5h2l5 16 4 13-1 2-2-2-1 2-5-2-4-2v-2h-2l-8-8v-2h-2l-7-7-10-8-3-3-2-1v-2l-4-2 1-2 4 1 1-4 8-2 2-2 5-1-1-4-3-5-5-6v-2h-2l-5-6z" fill="#46793D"/>
<path transform="translate(488,227)" d="m0 0 2 4 2 3 3 23 2 21 2 13v5l-4-2-5-2-4-5-3-7-4-4-14-26v-9l10-5h10l1-5z" fill="#497B40"/>
<path transform="translate(338,592)" d="m0 0 6 1 1 7-1 8-1 4v6l7 2v2l4 1-2 1v2h9v1l-32 4h-20l-19-2-4-1v-3h-2v-2h15l2-1-2-1v-2h2l2-4 8-4 7-2 9-1 8-5 5-10z" fill="#31623A"/>
<path transform="translate(443,243)" d="m0 0 3 3 9 18 2 9-1 5h-2l-1 4-4 6-3 1-11-4v2l-4-2-11-10-7-8-4-5 1-3 3 2 7-1 2-2 9-2 10-5 1-1z" fill="#46793F"/>
<path transform="translate(757,688)" d="m0 0h31l3 2 3 1 18 8 2 3h-8l-6 2-3 3-8 1h-10v2h-22l-2-1v-2l-2-1-2-4-3-2-8-2 3-5 10-4z" fill="#1E4B3A"/>
<path transform="translate(266,365)" d="m0 0h12l15 4 16 6 16 9 12 9 13 15 9 12 10 18 5 13h-2l-3-6-5-6-10-14-18-18-5-6-17-12-19-9-30-10z" fill="#8ECC6D"/>
<path transform="translate(817,272)" d="m0 0h4l1 2 10-1 3-1h12l-2 2-24 7-23 11-12 8-11 9-12 12-11 16-5 9-3 1-3 9-1-4 8-23 8-15 12-14 11-9 16-9 16-8z" fill="#93CF74"/>
<path transform="translate(760,592)" d="m0 0h2l4 4 2 11 2-6 2 1-1 7-7 8-3 5-2 5-11 13-9 10-4 1-2-3 2-15 5-13 6-11 10-14z" fill="#487F54"/>
<path transform="translate(480,757)" d="m0 0 2 1v6l-7 11-3 5h-2l-2 6-2 7-1 4-4-1 2 7-11 3h-12l-1-4-2-2v-8l6-6h2v-2h2l2-5 5-6 1 2 6-4 13-11z" fill="#285632"/>
<path transform="translate(504,1019)" d="m0 0h6l-5 5-17 4-8 3-7 1-3 3-11 5-17 3-14 4-4 2h-3l-1 3-15 6-14 3-13 6-17 8-8 6h-2v2l-11 7-6 3-7 2-1 3-5 2-3-1 24-16 16-10 15-8 15-7 7-4 10-4 15-7 17-5 19-6 17-4 16-5z" fill="#275532"/>
<path transform="translate(398,313)" d="m0 0h3l4 4v15l-3 6-7 7-12 5h-11l-10-5-2-5 2-2-2-3 2-1 11-1 10-6 9-8 5-5z" fill="#1F4B3B"/>
<path transform="translate(333,266)" d="m0 0 3 1 1 3v14l-5 8-10 6-6 2h-10l-5-3-4-5v-3h-2l-1-7 17-6 20-8h2z" fill="#2F5C38"/>
<path transform="translate(741,909)" d="m0 0h2l1 8 3-1-1 4-24 24-11 9-10 8-11 6-1-2-4-1 3-5 5-4 5-3 3-7-2-3 18-13 10-9z" fill="#497C41"/>
<path transform="translate(459,400)" d="m0 0 3 1 3 6 1 5v11l-4 8-8 7-9 3h-8l-7-3-5-5-4-6-1-8 10 5h7l10-5 4-6h2l1-4h2l1-7z" fill="#34623D"/>
<path transform="translate(529,139)" d="m0 0 4 2 4 8v9l-4 9-6 7-6 3-12 1-6-2-6-4-2-2v-5l10-4h2v-2l6-4 12-11 4-3z" fill="#255040"/>
<path transform="translate(325,459)" d="m0 0 5 3 6 5 7 8 1 1v17l-3 3-7 1-23-6v-3l-5-1-7-2 4-2 7-2 3-5 6-5h2l2-5z" fill="#295733"/>
<path transform="translate(336,670)" d="m0 0h6l3 6-5 3-19 5-16 7-15 8-12 9-9 7-8-1 6-7 5-6 11-9 8-6 16-8 18-6z" fill="#8DCC6D"/>
<path transform="translate(647,342)" d="m0 0 4 1 3 4 1 3v14l-3 6-5 6-10 5h-12l-9-5-3-5 1-7 1-1h16l9-6 6-7 1-5z" fill="#3B6842"/>
<path transform="translate(260,660)" d="m0 0h2l3 9v13l-4 6-7 6-9 3h-9l-7-3-2-1-1-4-2-2 9-3 8-4 10-10 2-4z" fill="#26523F"/>
<path transform="translate(344,594)" d="m0 0 6 1 24 11 3 3-2 5-4 1-3-1 2 5 3 1v2l2 1-3 2v1h-20l1-3-3-1v-2l-7-2-1-6 1-9 1-6z" fill="#295733"/>
<path transform="translate(375,567)" d="m0 0 5 2 1 3 7 1 10 9 7 11 1 2h-2v2l-8-1-20-7-10-3-10-4-8-2 4-2 2-2 3-2h10l3-1 2 1 2-2-1-4z" fill="#487A3F"/>
<path transform="translate(598,127)" d="m0 0 1 2h3l2 4 1 12h-3v2l-10 2v2h-2l-2 4-3 3-4 2-5 6h-2v2l-6 4-5 4-3 7-7 1-1 2v-4l8-13 11-13 9-10 15-15z" fill="#52834B"/>
<path transform="translate(363,1073)" d="m0 0v3l-5 7-5 5h3l6-2v3l-20 13-11 8h-6l-10 7-9 2-6 3-2-1 16-14 7-8 5-2 4-4 8-3 10-6 3-1v-2z" fill="#32633A"/>
<path transform="translate(455,266)" d="m0 0 3 3 6 9 5 7 1 13 3 5 1 6 2 4-5-2-19-10-15-11-2-2v-3l5 1 9 2 2-5 3-5h2z" fill="#325F3C"/>
<path transform="translate(526,564)" d="m0 0 10 3 13 4 19 3 1-5 4 2 5 3 4 4h-2l-3 3-5-1-18-5-5 1 3 11h-5v2h6l9 2v3l-2 1-21-8-11-7-8-7-2-3 1-4h7z" fill="#497B41"/>
<path transform="translate(771,759)" d="m0 0 7 1 5 5 5 8 2 6v10l-4-5-1-2h-5l-5 3h-4l-3 12-3 2-1-2v-12l-5 2-3 4-2-1 6-11 6-15z" fill="#4F814A"/>
<path transform="translate(551,1015)" d="m0 0h4l1 4 3 1-64 16-20 6h-2l-2-7h2v-2l15-6 14-3 5 1 5-1h8l1-2 4 1 6-3v2l7-3 1 1 2-3 7-1 3 1z" fill="#477A42"/>
<path transform="translate(552,574)" d="m0 0 9 2 13 4h5l1-3 5 3 3 4h-2l2 6-4 2-3 3-12 1v2l-6-2-2-3 1-1-15-3v-2h5v-2l-2-1-1-8z" fill="#2D5B38"/>
<path transform="translate(261,1410)" d="m0 0h1v43h-1l-1-20-2 6-2 4-3-1v-3l-5-2-1-2 1-3-6 2-1 5-1-2h-3l-5-8v6l-2-3-2-8v-10l5 5 5-1 2-3 5-1 4 4 5 9 5 1 1-15z" fill="#35663B"/>
<path transform="translate(553,507)" d="m0 0 5 5 6 10 6 8 1 2-2 4-8-1-17-5-12-6-10-8-1-5 9 2 3 3 4 2 13 1 2-3z" fill="#386841"/>
<path transform="translate(276,1345)" d="m0 0 1 3-7 22-2 4h-2l-2 4-4-3h-5l-3-4-1-6v-10l2-9 1 3 3 1v2h5l11-5z" fill="#34653C"/>
<path transform="translate(588,489)" d="m0 0 2 2 1 5h2l3 9 2 12h-2v9l-3 3-5-3-8-10-5-5-3-5-2-3 4-1 5-4 3-1 6 3-1-10z" fill="#4A7C41"/>
<path transform="translate(697,943)" d="m0 0 5 1v3h-2l-2 6-9 6-3 5h4l-1 4-9 5-3-1-10 1-4-1v-6l2-4 24-14z" fill="#326339"/>
<path transform="translate(404,1061)" d="m0 0 10 1-2 2-27 12-13 7-8 5h-2v-2l-7 4-3-1 4-6h2l2-4 4-5 6-3 10-3 9-4 3-2z" fill="#4A7C44"/>
<path transform="translate(488,428)" d="m0 0 11 2 28 6 5 2-1 2-9 2-1 1-14 1-13 1-5-1-1 6h-1l-1-8v-13z" fill="#97D079"/>
<path transform="translate(735,775)" d="m0 0h1l2 12 3 4h11l4-1 4-5 4-1 1 4v11l-9 6-3 1h-8l-8-2-8-5 1-4 3-1 2 1v-9l1-2h-2z" fill="#325C49"/>
<path transform="translate(446,781)" d="m0 0 2 1-1 2h-2v2l-7 6v8l3 3v2l6 1v1h-15l-20-3 1-8 5-5 15-6 12-3z" fill="#4E7F45"/>
<path transform="translate(630,987)" d="m0 0h6l2 2-2 3h-3l1 4-18 7-21 7-3-1 1-3h2l-1-5-5 1 2-4 10-3 9-2 6-3 12-2z" fill="#37673E"/>
<path transform="translate(304,374)" d="m0 0 5 1 16 9 12 9 13 15 9 12 10 18 5 13h-2l-3-6-5-6-10-14-18-18 1-2 12 12-6-11-5-5v-2l-4-2-7-6-5-2v-2l-7 1v-5l-4-2-8-5z" fill="#7BAF67"/>
<path transform="translate(708,254)" d="m0 0 3 4 3 8 1 7 1 4 2-2h5v3l-15 10-10 6-3-1v-6l6-11 2-8 2-10z" fill="#36673E"/>
<path transform="translate(675,1026)" d="m0 0h2l2 9-1 5-1 3 3 3-4 1-5-1-24-1-17 8-8 4-6 1 4-4 10-5 10-4 17-9 12-6 3-1v-2z" fill="#1B4737"/>
<path transform="translate(321,851)" d="m0 0 7 1 3 1 2 8v8l-6 8-4 3-7-1-2-6 1-1-1-10 6-10z" fill="#36663E"/>
<path transform="translate(262,1427)" d="m0 0h1l1 43 3 23 5 15 2 4v3l-4-2-12-19-8-15 2-7 7 1h3z" fill="#65915D"/>
<path transform="translate(895,420)" d="m0 0h2v2l6 1 1 4 2 1v2l-2 2h-38l-4 1h-8l-11 2-5 2-3-1 7-4 30-6 6-2 7-1v-2z" fill="#39734A"/>
<path transform="translate(325,459)" d="m0 0 3 1 2 4v6l-5 9-1 11 3 4-8-1-8-2v-3l-5-1-7-2 4-2 7-2 3-5 6-5h2l2-5z" fill="#33633B"/>
<path transform="translate(760,987)" d="m0 0h5l-6 7-12 11-30 22-11 7-7 4v-3l12-10 6-4 5-5 5-3 6-7 8-7 10-4z" fill="#3C6C43"/>
<path transform="translate(760,592)" d="m0 0h2l4 4 2 11 2-6 2 1-1 7-11 12-3 2-2-2-2-18-2-1 7-9z" fill="#477A40"/>
<path transform="translate(272,1156)" d="m0 0 1 2 2 1-9 10-8 11-10 13-7 10h-1l-1-13 3-5h2l2-5 5-5 6-5 3-1 1-2h2l2-4z" fill="#3E6D46"/>
<path transform="translate(711,742)" d="m0 0h1l1 11 1-3h3l5 13v6l2 7 1 13v3l-1 2-6-8-5-10-2-11z" fill="#417A4D"/>
<path transform="translate(373,454)" d="m0 0 3 2 7 24-1 2-2-2-1 2-5-2-4-2v-2h-2l-8-8v-2h-2l-7-7-1-2 9 2 6 2v2l4 2 2 2 2-7z" fill="#3F784D"/>
<path transform="translate(228,1190)" d="m0 0 3 4-1 8-4 6-7 13-3 5-4 2-5-1-1-5 8-13 5-4 2 1v-6l6-8z" fill="#1A4637"/>
<path transform="translate(774,377)" d="m0 0 2 4 1 5v9l-2 4 2 1v2l-20 8-1-4 1-3 4-4 3-8z" fill="#36663D"/>
<path transform="translate(378,674)" d="m0 0h7l18 7-1 3-7 3-9 4-9 2-5 2-1-2h2l2-7 4-5 1-3z" fill="#497B43"/>
<path transform="translate(646,351)" d="m0 0 5 1v8l-3 7-7 6h-8l-6-3-1-5 12-6z" fill="#1A4637"/>
<path transform="translate(903,934)" d="m0 0h2l1 12-3 19-2 3-1-3-5 13h-1v-8l-1-3-4 1 2-6 7-16 4-11z" fill="#507F4C"/>
<path transform="translate(454,413)" d="m0 0h5l-4 12-4 2-2 4-11 4-6-2-3-6h2v-2l8-2 8-4z" fill="#1A4637"/>
<path transform="translate(452,775)" d="m0 0 1 2-2 5 1 4-3 4h-2v7l8 6h5l-3 2-5 1h-12l-1-4-2-2v-8l6-6h2v-2h2l2-5z" fill="#34653B"/>
<path transform="translate(291,283)" d="m0 0 4 1v5h2l1 5 3 1 2 2 1 2 9 1v1h-17l-10-5-8-8 1-3 4 1z" fill="#4F7F49"/>
<path transform="translate(493,270)" d="m0 0 3 4 3 17v5l-4-2-5-2-4-5-3-7-4-4-2-5 11 4 3 1z" fill="#36673D"/>
<path transform="translate(544,1011)" d="m0 0m-9 1h9v2l-5 1v3l-6 1-8 5-4-1-3 2h-10l-2 1-1-3 2-5z" fill="#295732"/>
<path transform="translate(379,708)" d="m0 0h5l-1 4-7 4-5 6-2 4-8 4-10 4h-2v2l-11 8-3 1v-2l9-7 10-8h2v-2l10-8 7-6 1-2z" fill="#316239"/>
<path transform="translate(366,975)" d="m0 0 6 1-3 3-24 11-15 7h-2l1-4 10-7 2-2 7-3 5-3z" fill="#316239"/>
<path transform="translate(444,1043)" d="m0 0 6 2 1 4-30 11-7 2-2-2 5-4 9-3v-2h2v-2l8-4z" fill="#4F8148"/>
<path transform="translate(455,266)" d="m0 0 3 3 4 6v9l-3 9-2 2h-5l-10-5-2-3 9 1 2-5 3-5h2z" fill="#306138"/>
<path transform="translate(602,573)" d="m0 0 3 4 4 7v2l5 1 7 4v-5l2 3 2 11v9l-2 3-9-14-12-22z" fill="#52875B"/>
<path transform="translate(809,436)" d="m0 0 2 1-5 7-9 9h-2v2h-2l-1 4h-3v2l-4 3h-2l-1 3-4 1-3 5h-3l4-6 7-9 13-13z" fill="#69A355"/>
<path transform="translate(324,271)" d="m0 0h3l1 2 5 3-1 8h-2l1 3-7 1v-2l-7 1-4-3 4-1-2-2 3-2-1-2h-4v-2z" fill="#1A4637"/>
<path transform="translate(296,1122)" d="m0 0h2l-1 9-3 5-2 3-5 3-4 5v3l-7 8h-3l-1-4 4-8h2l2-4 8-7 1-3h2l1-5z" fill="#33643B"/>
<path transform="translate(242,1454)" d="m0 0 5 5 2 3 9 2 5 9-1 2-5-2h-5l-1 4h-2l-8-16-2-5z" fill="#396940"/>
<path transform="translate(473,1031)" d="m0 0h5l-2 2h-3l-1 3 1 6-8 3-11 3-4-1-1-2-7-1 3-3 14-2 12-6z" fill="#396A40"/>
<path transform="translate(829,595)" d="m0 0 9 3v2h3v2l4 2 1 3-11-3h-18l-13 1 2-2 10-2 1-3z" fill="#204D38"/>
<path transform="translate(494,1028)" d="m0 0 10 1 6 2-4 2-24 7h-4l1-6h2v-2l9-3z" fill="#437A50"/>
<path transform="translate(712,765)" d="m0 0h4l2 5h2l2 6 3 11-1 4v3l-6-8-5-10-1-4z" fill="#508148"/>
<path transform="translate(552,574)" d="m0 0 7 1-1 4 2 4 4 4v5l-9-1-8-2v-2h5v-2l-2-1-1-8z" fill="#306138"/>
<path transform="translate(545,495)" d="m0 0 3 3-1 6-6 5h-8l-5-3 1-2-4-2 15-4 5-1z" fill="#397348"/>
<path transform="translate(264,1478)" d="m0 0h1l3 19 6 15v3l-4-2-12-19-1-3 7-2z" fill="#668D67"/>
<path transform="translate(444,1144)" d="m0 0 2 1-1 3-17 10-17 11-3-1v-2l17-12 12-7z" fill="#406F48"/>
<path transform="translate(833,894)" d="m0 0h2l-1 6-11 19-7 10h-2l-1-3 8-14 6-9z" fill="#3E6E44"/>
<path transform="translate(771,759)" d="m0 0 7 1 5 5 1 5v2h-2v-2h-7l-3 1-1 3v-3l-3 1v-11z" fill="#51825A"/>
<path transform="translate(739,736)" d="m0 0 2 2-3 7-2 14-1 16h-2l-2-6 1-23 3-6z" fill="#30623B"/>
<path transform="translate(744,618)" d="m0 0h2v3h2l2 3h4l-2 4-5 5h-8l-1-1v-7l3-3z" fill="#1C4839"/>
<path transform="translate(541,292)" d="m0 0 2 3v4l5 2 3 8 6 1 1-5 1 4-3 8-5 1h-3l-6-18z" fill="#417148"/>
<path transform="translate(300,626)" d="m0 0 11 1h8l4-1 4 2h20v1l-18 2h-20l-19-2-4-2h11z" fill="#6C9B70"/>
<path transform="translate(621,983)" d="m0 0 4 1-5 4-7 2v2l-5 3-10 2-9 2-2-1 3-3 17-6z" fill="#1D4A36"/>
<path transform="translate(390,299)" d="m0 0h5l8 9 3 7v14h-1v-12l-4-2v-2l-4 1-3-3z" fill="#527F4F"/>
<path transform="translate(362,334)" d="m0 0h8l-3 2v2h2v2h2v2l5 2v4l-7 1-8-5-1-4 2-2-2-3z" fill="#35623E"/>
<path transform="translate(551,1015)" d="m0 0h4l1 4 3 1-29 7v-2l3-1 1-3 4-2 1 1 2-3 7-1 3 1z" fill="#477E51"/>
<path transform="translate(569,569)" d="m0 0 4 2 5 3 4 4h-2l-3 3-5-1-18-5v-2l14 1z" fill="#45783D"/>
<path transform="translate(762,784)" d="m0 0 3 1v14l-2 1-7-2-2-3-3-1 1-3 4-1 4-5z" fill="#386A3E"/>
<path transform="translate(297,281)" d="m0 0 4 2 3 9 3 2v2l9 3v1h-10l-5-3-4-5v-3h-2l-1-7z" fill="#34653B"/>
<path transform="translate(780,607)" d="m0 0 4 1-2 4 7-3h5l-2 4-2 5-2 4-4-2-3-3-1-7-7 2 4-4z" fill="#89B778"/>
<path transform="translate(677,870)" d="m0 0 1 4 6-1v7l-4 4h-3l-2 1-4-2-1-3 3-7 2 1z" fill="#34653D"/>
<path transform="translate(555,1011)" d="m0 0h10l12 2 2 2-16 4h-2v-3l-10-2 1-2z" fill="#427148"/>
<path transform="translate(322,730)" d="m0 0h3v2l-7 5h-3v2l-4 1-8 1-2-1v-2l18-7z" fill="#5E9C47"/>
<path transform="translate(612,594)" d="m0 0 4 2 6 2 1-4h1l1 6v9l-2 3-9-14z" fill="#97BF88"/>
<path transform="translate(264,1148)" d="m0 0 2 1-3 5h-2l-2 6-5 4-8 3-2 2 1-4 16-15z" fill="#1A4637"/>
<path transform="translate(498,719)" d="m0 0h6l1 5-4 2-6-1-15-3v-1z" fill="#45783D"/>
<path transform="translate(284,623)" d="m0 0h16l5 1v2h13l1 2h-11l-8-1-9 1-5-1v-2h-2z" fill="#1E4B39"/>
<path transform="translate(735,775)" d="m0 0h1l2 12 3 4 10 1v1l-9 1-2 4-10-1v-2l3-1 2 1v-9l1-2h-2z" fill="#5F8764"/>
<path transform="translate(735,633)" d="m0 0 2 4 2 6 5-2 4-2-6 8-5 4-3-1-1-5z" fill="#94BE85"/>
<path transform="translate(746,384)" d="m0 0 1 2-1 2h-2v3h-2l-1 4-5 5-5 2-3 1 3-9h4l3-3z" fill="#4D7F47"/>
<path transform="translate(790,689)" d="m0 0 9 1 16 6 2 2h-4v3l-12-6-8-3-3-1z" fill="#4A784F"/>
<path transform="translate(491,153)" d="m0 0 1 2 5 2 4 3 4 2-6 3h-4l-1 3-3-6z" fill="#4E7F46"/>
<path transform="translate(511,501)" d="m0 0 3 2 7 2 3 3 2 5-4-1v3l-4-2-6-6z" fill="#548152"/>
<path transform="translate(353,1078)" d="m0 0 2 1-4 2v2l-11 7-6 3-7 2-1 3-5 2-3-1 12-8 6-2 3-2h2l3-3z" fill="#275532"/>
<path transform="translate(646,1042)" d="m0 0 2 1-3 3-16 8-10 4-3-1 6-4 8-4 10-4z" fill="#1D4A37"/>
<path transform="translate(806,934)" d="m0 0 2 1-6 6h-2l-1 4h-2l-1 3-6 1v-2l-4 1v-2l6-4 7-1v-2h2v-2z" fill="#316239"/>
<path transform="translate(404,1169)" d="m0 0 1 2 2 1-12 9-7 5-1-3 9-9z" fill="#517D57"/>
<path transform="translate(486,1028)" d="m0 0m-4 1h4v2l-5 1-3 9-5 1-2-7h2v-2z" fill="#477A3F"/>
<path transform="translate(667,258)" d="m0 0h1l-1 11-3 9-2 1-2 19h-1v-18l4-11z" fill="#6E9D6F"/>
<path transform="translate(796,445)" d="m0 0 2 1-12 12-3 6-1 3-4 1-3 5h-3l4-6 7-9z" fill="#91B58D"/>
<path transform="translate(747,253)" d="m0 0h3l-1 4-10 9-5-1 2-2v-3l6-3z" fill="#4F835D"/>
<path transform="translate(863,766)" d="m0 0 2 3 1 10v31l-1 7h-1v-32l-1-9-2 1 1-5z" fill="#70A85B"/>
<path transform="translate(263,1498)" d="m0 0 4 1 4 6 3 7v3l-4-2-7-11z" fill="#4C7557"/>
<path transform="translate(739,736)" d="m0 0 2 2-3 7-2 14h-1l-1-7h-2v-6l3-6z" fill="#49774F"/>
<path transform="translate(580,516)" d="m0 0 4 1 6 3v2l6-1-1 7-3 1-8-8z" fill="#387249"/>
<path transform="translate(550,917)" d="m0 0 2 1-11 9-1 2h14l-1 2h-15l-3-3 4-5 7-2v-2z" fill="#82B075"/>
<path transform="translate(504,1019)" d="m0 0h6l-5 5-9 1-11 1 1-2z" fill="#225034"/>
<path transform="translate(358,1073)" d="m0 0 2 1-11 8-5 2-1 2-4 2-7 4-1-2 17-11z" fill="#1C4837"/>
<path transform="translate(607,359)" d="m0 0 6 1 4 3-2 1-1 9-4-4-3-7z" fill="#517F52"/>
<path transform="translate(311,1104)" d="m0 0 2 1-14 13-11 9-2-1 7-7 11-9z" fill="#1B4837"/>
<path transform="translate(814,725)" d="m0 0 5 3 7 9-2 4-11-12z" fill="#4E7F5A"/>
<path transform="translate(647,342)" d="m0 0 4 1 3 10-2 7h-1l-1-8-4-2 1-5z" fill="#295733"/>
<path transform="translate(402,1214)" d="m0 0 2 1-26 26-2-1 13-13 4-5 8-7z" fill="#759A7C"/>
<path transform="translate(820,597)" d="m0 0 2 1 1 3 7 1v1l-26 2 2-2 10-2 1-3z" fill="#316239"/>
<path transform="translate(775,296)" d="m0 0m-4 1 4 1-16 16-1-2 9-11z" fill="#B4D8A4"/>
<path transform="translate(703,262)" d="m0 0h1l-1 12-6 12-1-3 3-11z" fill="#285632"/>
<path transform="translate(187,1322)" d="m0 0h2l-2 16-2 13h-1v-17l2-6z" fill="#77A371"/>
<path transform="translate(713,937)" d="m0 0 3 1v1l5 1v3h-4l-1 4-6-5 1-4z" fill="#1B4738"/>
<path transform="translate(360,1086)" d="m0 0h2v3l-12 8h-2l1-4 3-3z" fill="#36624A"/>
<path transform="translate(286,741)" d="m0 0m-2 1 2 1-1 3-16 8-5 1 5-4 11-6z" fill="#214E36"/>
<path transform="translate(320,758)" d="m0 0 1 3 3 3 14 4v1h-10l-10-5v-4z" fill="#37673D"/>
<path transform="translate(751,723)" d="m0 0m-2 1 2 1-3 5-6 7-3-1v-2h2l2-4z" fill="#2C5B3F"/>
<path transform="translate(368,1201)" d="m0 0 3 1-13 13-2-3 8-8h2v-2z" fill="#376B3D"/>
<path transform="translate(535,1015)" d="m0 0 4 1v2l-6 1-8 5-5-2 4-2 7-4z" fill="#316239"/>
<path transform="translate(762,774)" d="m0 0h3l-1 9-6 5-2 3-2-1 6-11z" fill="#85B177"/>
<path transform="translate(829,595)" d="m0 0h2l1 5-5 2h-5l1-3-2-1 3-2z" fill="#285632"/>
<path transform="translate(542,586)" d="m0 0 5 1v2h6l9 2v3l-2 1-18-7z" fill="#567E61"/>
<path transform="translate(337,542)" d="m0 0h6l8 5 5 5-6-2-13-7z" fill="#87CB63"/>
<path transform="translate(220,680)" d="m0 0 5 4h8l-4 3-3 1 2 3h-3l-5-6z" fill="#5C875A"/>
<path transform="translate(321,626)" d="m0 0 6 2h20v1l-9 1h-20l1-3z" fill="#588B59"/>
<path transform="translate(565 1e3)" d="m0 0h6v2l-14 4-4-1 1-2z" fill="#1E4A37"/>
<path transform="translate(818,327)" d="m0 0 2 1zm-1 1 1 3h-2l-1 4-7 8-4 3 2-5z" fill="#579244"/>
<path transform="translate(894,991)" d="m0 0 1 4-2 12-3 2 1-12z" fill="#5A8B51"/>
<path transform="translate(492,1024)" d="m0 0 5 1v1l-17 4 1-5z" fill="#2C5B36"/>
<path transform="translate(262,754)" d="m0 0 3 1-3 3-12 6-2-1 4-4z" fill="#366739"/>
<path transform="translate(923,432)" d="m0 0 5 2 1 3-6 3h-2l-1-6z" fill="#387149"/>
<path transform="translate(226,1192)" d="m0 0v3l-4 5v6l-2 2-1-2-4 3 2-5 7-10z" fill="#285632"/>
<path transform="translate(646,1042)" d="m0 0 2 1-3 3-12 6-3-1 8-5z" fill="#1C4936"/>
<path transform="translate(355,332)" d="m0 0 7 2-1 2 2 2-2 3-1 2-5-7z" fill="#5F8B5B"/>
<path transform="translate(547,1014)" d="m0 0h10l5 2-1 3h-5l-1-4h-4v2l-5-1z" fill="#1D4A39"/>
<path transform="translate(769,476)" d="m0 0h6l-4 5-5 3-1 2-2-1z" fill="#65936E"/>
<path transform="translate(277,697)" d="m0 0v3l-14 14-2-1 11-12z" fill="#C7E3B9"/>
<path transform="translate(771,1174)" d="m0 0 3 1v2l3 2-9 5v-2l2-1-2-5z" fill="#6DA45A"/>
<path transform="translate(790,689)" d="m0 0 9 1 6 2-2 3-8-2-4-2z" fill="#548257"/>
<path transform="translate(863,766)" d="m0 0 2 3 1 15h-2l-1-8-2 1 1-5z" fill="#86B675"/>
<path transform="translate(492,159)" d="m0 0 4 2 6 1-3 3h-4l-1 3-2-4z" fill="#426F4A"/>
<path transform="translate(534,1021)" d="m0 0 7 1 2-1 4 2-17 4v-2l3-1z" fill="#7FAA74"/>
<path transform="translate(506,1022)" d="m0 0h14v2l-7 1h-5l-2 1-1-3z" fill="#316239"/>
<path transform="translate(539,1016)" d="m0 0h7v1l-5 1-2 3h-3l-5 1 2-4 4-1 2 1z" fill="#1A4638"/>
<path transform="translate(256,654)" d="m0 0 4 2 1 4-4 2-1 3-1-2z" fill="#517E52"/>
<path transform="translate(531,580)" d="m0 0 10 1-3 1v2h2l1 3-6-2-4-3z" fill="#497359"/>
<path transform="translate(402,311)" d="m0 0 3 1 1 3v14h-1v-12l-4-2v-2l-2-1z" fill="#46764E"/>
<path transform="translate(588 1e3)" d="m0 0h6v2l2 1-3 3-3-1-1-2h-3v-2z" fill="#1A4638"/>
<path transform="translate(296,483)" d="m0 0 15 5v2l-9-2-6-2z" fill="#4B765B"/>
<path transform="translate(698,959)" d="m0 0 4 1-11 7-1-3z" fill="#5B8461"/>
<path transform="translate(575,572)" d="m0 0 7 5-5 4-4-1 2-2z" fill="#538758"/>
<path transform="translate(852,356)" d="m0 0 1 3-9 9-1-3 5-5z" fill="#698A7A"/>
<path transform="translate(667,258)" d="m0 0h1l-1 11-4 6h-2l2-6z" fill="#B3D1A8"/>
<path transform="translate(713,773)" d="m0 0 5 4v4l2 1-1 4-3-4-3-6z" fill="#629466"/>
<path transform="translate(269,1503)" d="m0 0 2 2 3 7v3l-4-2-2-4h2z" fill="#B0C9AC"/>
<path transform="translate(764,785)" d="m0 0 1 3-1 7-4-4-2-1z" fill="#1A4638"/>
<path transform="translate(361,750)" d="m0 0 4 1 2 2-7 4v-2l-2-1z" fill="#57805C"/>
<path transform="translate(236,441)" d="m0 0h3v2l4 2 3 5h-3l-7-8z" fill="#6F9471"/>
<path transform="translate(525,135)" d="m0 0 4 1 2 3h-2l1 3-4 2z" fill="#537F57"/>
<path transform="translate(263,1482)" d="m0 0h1v7l-4 2h-3v-4l3-1 3 1z" fill="#326339"/>
<path transform="translate(708,952)" d="m0 0 3 1-7 6-3-1 1-3h2v-2z" fill="#538059"/>
<path transform="translate(749,630)" d="m0 0 2 2-4 3-7 1-2-4h10z" fill="#46793D"/>
<path transform="translate(185,538)" d="m0 0 3 1 1 9-5-5-1-3z" fill="#AFCFA3"/>
<path transform="translate(647,342)" d="m0 0 4 1 1 4-3 1-1 3-2-1 1-5z" fill="#477A3D"/>
<path transform="translate(420,419)" d="m0 0 7 4-2 2h-3l-1 2z" fill="#417243"/>
<path transform="translate(136,1284)" d="m0 0" fill="#FEFEFE"/>
<path transform="translate(588,379)" d="m0 0" fill="#FEFEFE"/>
</svg>
